<?xml version="1.0" standalone="no"?>
<!DOCTYPE svg PUBLIC "-//W3C//DTD SVG 20010904//EN"
 "http://www.w3.org/TR/2001/REC-SVG-20010904/DTD/svg10.dtd">
<svg xmlns="http://www.w3.org/2000/svg"
 viewBox="0 0 829 287"
 class="w-full h-full"
 preserveAspectRatio="xMidYMid meet">

<g transform="translate(0.000000,287.000000) scale(0.100000,-0.100000)"
fill="currentColor" stroke="none">
<path d="M1690 2339 c-240 -35 -434 -155 -543 -336 -49 -81 -75 -139 -109
-248 -20 -65 -26 -77 -22 -45 6 49 56 205 78 247 12 24 11 28 -15 54 -16 16
-29 31 -29 35 0 4 -8 13 -17 20 -15 10 -21 10 -35 -3 -14 -12 -18 -13 -18 -3
0 14 104 121 155 159 25 18 25 20 5 10 -14 -7 -62 -48 -106 -93 -123 -122
-169 -227 -229 -516 -10 -47 -26 -119 -36 -160 -10 -41 -17 -75 -16 -77 2 -1
45 15 97 36 52 21 150 59 217 86 l122 47 11 57 c35 182 95 276 210 330 55 26
56 26 340 27 168 1 299 6 318 12 62 20 159 81 201 127 48 52 89 136 98 201 l6
44 -314 -1 c-173 -1 -339 -5 -369 -10z m-685 -719 c-9 -41 -17 -33 -9 9 4 17
9 30 11 27 3 -2 2 -19 -2 -36z"/>
<path d="M1438 2333 c7 -3 16 -2 19 1 4 3 -2 6 -13 5 -11 0 -14 -3 -6 -6z"/>
<path d="M1215 2147 c-25 -29 -26 -40 -2 -18 15 14 27 26 27 28 0 7 -16 1 -25
-10z"/>
<path d="M1769 1854 c-24 -22 -61 -53 -81 -68 -29 -21 -38 -36 -38 -57 0 -22
-6 -30 -25 -35 -14 -3 -32 -3 -41 0 -10 4 -45 -11 -92 -40 -41 -26 -120 -71
-176 -100 -55 -30 -95 -54 -89 -54 59 -1 443 102 443 118 0 5 -5 13 -11 19
-18 18 10 27 30 9 23 -21 24 -21 101 15 l67 30 -1 52 c0 29 3 59 7 67 5 10 -3
27 -21 49 l-29 35 -44 -40z"/>
<path d="M3690 1395 l0 -355 75 0 75 0 -2 353 -3 352 -72 3 -73 3 0 -356z"/>
<path d="M3100 1375 l0 -336 78 3 77 3 2 120 1 120 151 3 151 3 0 59 0 60
-150 0 -150 0 0 75 c0 41 0 78 0 83 0 4 78 9 172 12 l173 5 0 60 0 60 -252 3
-253 2 0 -335z"/>
<path d="M5681 1688 c-5 -13 -70 -161 -145 -331 -75 -169 -136 -309 -136 -312
0 -11 88 -4 97 8 5 6 22 42 38 79 l28 67 141 3 c225 5 207 11 249 -83 l36 -79
51 0 c27 0 50 2 50 4 0 3 -35 81 -78 173 -43 92 -112 241 -152 331 l-73 162
-49 0 c-41 0 -50 -3 -57 -22z m133 -252 c37 -82 66 -151 66 -153 0 -6 -216 -3
-247 3 l-30 6 66 154 c36 84 69 150 73 146 4 -4 36 -74 72 -156z"/>
<path d="M1872 1652 c-57 -29 -98 -57 -105 -71 -19 -37 -41 -47 -71 -32 -22
12 -36 10 -122 -18 -54 -17 -184 -48 -289 -67 -212 -40 -301 -62 -391 -97 -61
-24 -124 -57 -79 -42 64 23 109 34 113 30 3 -3 -1 -5 -9 -5 -11 0 -11 -2 1
-10 12 -8 11 -10 -7 -10 -12 0 -24 -4 -27 -9 -3 -4 6 -7 19 -5 19 2 25 -2 25
-18 0 -14 5 -18 15 -14 8 3 15 0 15 -5 0 -6 -8 -9 -18 -7 -10 3 -23 -1 -30 -9
-16 -16 -18 -16 68 2 39 8 146 24 238 35 148 18 309 42 367 55 11 3 4 -2 -15
-11 -51 -24 -143 -40 -349 -64 -233 -27 -387 -65 -511 -126 -84 -42 -108 -60
-202 -156 -99 -100 -115 -108 -78 -37 6 10 8 19 5 19 -6 0 -42 -77 -76 -161
l-18 -47 70 69 c109 108 204 165 355 212 107 34 201 45 479 57 232 10 323 21
470 59 76 19 105 38 105 68 0 7 12 18 26 24 21 7 31 6 45 -7 16 -15 24 -13
111 25 134 60 133 58 108 115 -20 43 -23 46 -60 46 -73 0 -106 87 -56 147 23
28 23 28 5 71 -10 23 -22 42 -26 41 -4 0 -50 -21 -101 -47z m-64 -249 c18 -48
30 -89 27 -91 -14 -14 -35 15 -59 78 -29 80 -32 100 -12 100 8 0 26 -36 44
-87z m-673 6 c-33 -11 -66 -27 -72 -36 -7 -9 -13 -12 -13 -5 0 7 -7 12 -15 12
-8 0 -15 4 -15 9 0 11 104 39 145 39 23 0 16 -5 -30 -19z"/>
<path d="M4110 1540 c-66 -22 -140 -96 -158 -157 -40 -134 19 -270 140 -324
75 -32 193 -32 261 0 58 28 119 96 135 149 17 55 15 146 -3 190 -55 130 -223
195 -375 142z m169 -118 c49 -25 73 -74 68 -141 -3 -47 -9 -59 -40 -88 -31
-28 -44 -33 -86 -33 -79 0 -131 56 -131 142 0 104 98 167 189 120z"/>
<path d="M4613 1295 l90 -256 76 3 76 3 54 153 c29 84 56 150 59 148 2 -3 28
-72 57 -153 l53 -148 75 -3 75 -3 38 108 c21 59 62 173 90 253 l52 145 -65 3
c-36 2 -67 1 -69 0 -2 -2 -28 -75 -59 -163 -30 -87 -57 -161 -60 -163 -2 -3
-6 1 -9 9 -2 8 -28 83 -56 167 l-53 152 -67 0 -68 0 -47 -137 c-27 -76 -53
-151 -60 -168 -11 -28 -14 -22 -69 138 l-59 167 -72 0 -72 0 90 -255z"/>
<path d="M6170 1295 l0 -255 45 0 45 0 0 150 c0 105 4 161 14 183 19 47 68 85
121 93 44 6 45 7 45 45 0 38 -1 39 -35 39 -44 0 -94 -20 -119 -49 -28 -31 -39
-26 -33 14 l6 35 -45 0 -44 0 0 -255z"/>
<path d="M6636 1530 c-77 -39 -120 -95 -137 -182 -24 -118 31 -232 137 -284
79 -39 186 -39 260 -1 71 36 77 46 49 81 l-23 28 -47 -28 c-56 -32 -140 -37
-190 -12 -41 22 -82 67 -90 101 l-7 27 206 0 206 0 0 38 c0 151 -103 252 -254
252 -50 -1 -83 -7 -110 -20z m199 -79 c34 -20 75 -75 75 -102 0 -18 -11 -19
-160 -19 -175 0 -176 0 -146 58 44 84 147 112 231 63z"/>
<path d="M7112 1298 l3 -253 43 -3 42 -3 0 133 c1 198 19 251 97 284 77 33
153 8 184 -59 16 -36 19 -66 19 -199 l0 -158 46 0 46 0 -4 188 c-3 174 -5 190
-26 227 -13 22 -39 52 -59 65 -32 22 -47 25 -124 25 -82 0 -90 -2 -133 -32
l-46 -33 0 35 c0 35 0 35 -45 35 l-45 0 2 -252z"/>
<path d="M7805 1534 c-22 -8 -51 -23 -64 -33 -23 -18 -23 -18 -5 -47 10 -16
18 -30 19 -31 1 -1 23 9 50 22 61 31 167 35 201 7 29 -23 44 -54 44 -90 l0
-30 -117 -3 c-128 -4 -166 -17 -205 -69 -23 -31 -27 -94 -9 -138 16 -39 77
-77 139 -87 55 -9 135 10 173 42 l29 25 0 -31 c0 -30 1 -31 46 -31 l46 0 -4
188 c-4 214 -12 245 -81 290 -35 24 -52 27 -131 29 -61 2 -104 -3 -131 -13z
m245 -307 c0 -76 -50 -117 -143 -117 -69 0 -107 26 -107 74 0 65 36 83 173 85
l77 1 0 -43z"/>
<path d="M634 1218 l-19 -23 23 19 c21 18 27 26 19 26 -2 0 -12 -10 -23 -22z"/>
<path d="M574 1167 l-29 -32 30 25 c17 14 32 26 34 28 2 1 2 4 -1 7 -2 3 -18
-10 -34 -28z"/>
<path d="M960 1034 c-122 -19 -271 -61 -293 -83 -8 -8 -47 -191 -47 -216 0 -5
9 8 20 30 10 22 18 31 17 20 -1 -11 0 -21 3 -22 3 0 24 -9 48 -18 24 -10 46
-15 49 -11 3 3 12 1 19 -5 9 -7 17 3 33 45 11 30 23 67 27 81 3 14 8 24 11 22
8 -9 -28 -140 -56 -206 -36 -82 -44 -137 -19 -135 10 1 15 -2 13 -7 -3 -4 11
-7 30 -6 49 3 132 86 174 172 25 50 90 292 91 338 0 7 -73 8 -120 1z"/>
<path d="M611 704 c0 -11 3 -14 6 -6 3 7 2 16 -1 19 -3 4 -6 -2 -5 -13z"/>
<path d="M601 654 c0 -11 3 -14 6 -6 3 7 2 16 -1 19 -3 4 -6 -2 -5 -13z"/>
<path d="M592 610 c0 -14 2 -19 5 -12 2 6 2 18 0 25 -3 6 -5 1 -5 -13z"/>
<path d="M581 564 c0 -11 3 -14 6 -6 3 7 2 16 -1 19 -3 4 -6 -2 -5 -13z"/>
<path d="M767 492 c-26 -13 -46 -27 -43 -29 5 -5 106 45 106 52 0 8 -12 4 -63
-23z"/>
<path d="M665 450 c-13 -5 -14 -9 -5 -9 8 0 24 4 35 9 13 5 14 9 5 9 -8 0 -24
-4 -35 -9z"/>
</g>
</svg>
